<?xml version="1.0" encoding="UTF-8" standalone="no"?>
<!-- Created with Inkscape (http://www.inkscape.org/) -->

<svg
   width="1000"
   height="1000"
   viewBox="0 0 1000 1000"
   version="1.1"
   id="svg1"
   xml:space="preserve"
   inkscape:version="1.4 (e7c3feb1, 2024-10-09)"
   sodipodi:docname="silverspeak_logo_editable.svg"
   xmlns:inkscape="http://www.inkscape.org/namespaces/inkscape"
   xmlns:sodipodi="http://sodipodi.sourceforge.net/DTD/sodipodi-0.dtd"
   xmlns="http://www.w3.org/2000/svg"
   xmlns:svg="http://www.w3.org/2000/svg"><sodipodi:namedview
     id="namedview1"
     pagecolor="#ffffff"
     bordercolor="#000000"
     borderopacity="0.25"
     inkscape:showpageshadow="2"
     inkscape:pageopacity="0.0"
     inkscape:pagecheckerboard="0"
     inkscape:deskcolor="#d1d1d1"
     inkscape:document-units="mm"
     inkscape:zoom="0.56793789"
     inkscape:cx="491.2509"
     inkscape:cy="397.05046"
     inkscape:window-width="1440"
     inkscape:window-height="2560"
     inkscape:window-x="0"
     inkscape:window-y="0"
     inkscape:window-maximized="0"
     inkscape:current-layer="svg1" /><defs
     id="defs1" /><path
     style="color:#000000;text-indent:0;text-transform:none;direction:ltr;baseline-shift:baseline;stroke-width:9.31184;enable-background:accumulate"
     d="m 498.54549,108.93404 a 27.938296,27.938296 0 0 0 -8.14785,1.45498 L 211.04261,212.81919 a 27.938296,27.938296 0 0 0 -18.33314,26.48053 v 307.2911 c 0,76.30209 43.06536,139.29666 99.22876,192.9291 56.16432,53.63245 126.81787,100.18509 191.76606,146.36993 a 27.938296,27.938296 0 0 0 32.59142,0 c 64.94819,-46.18484 135.60171,-92.73748 191.76606,-146.36993 56.1634,-53.63244 99.22876,-116.62701 99.22876,-192.9291 V 239.29972 A 27.938296,27.938296 0 0 0 788.95739,212.81919 L 509.60235,110.38902 a 27.938296,27.938296 0 0 0 -11.05686,-1.45498 z M 500,166.55102 751.41953,258.79638 v 287.79444 c 0,55.30111 -31.28311,103.9927 -82.06054,152.48035 C 622.78864,743.54356 560.84072,785.6554 500,828.56434 439.15927,785.6554 377.21135,743.54356 330.64101,699.07117 279.86359,650.58352 248.58047,601.89193 248.58047,546.59082 V 258.79638 Z"
     fill="#000000"
     fill-opacity="1"
     marker="none"
     visibility="visible"
     display="inline"
     overflow="visible"
     id="path1"
     sodipodi:insensitive="true" /><g
     id="g13"
     transform="matrix(1.128082,0,0,1.128082,-64.041017,-108.05991)"><path
       id="text2"
       style="font-size:670.59px;text-align:center;writing-mode:lr-tb;direction:ltr;text-anchor:middle;mix-blend-mode:normal;fill:#8a8a8a;fill-opacity:1;stroke-width:3.49266"
       inkscape:label="original"
       d="m 485.24609,316.92969 c -35.31774,0 -63.70518,6.25771 -85.16406,18.77539 -21.45888,12.07062 -38.67002,28.1655 -51.63476,48.2832 l 50.96484,45.59961 c 8.49414,-12.07062 18.77508,-22.35352 30.8457,-30.84766 12.51768,-8.9412 28.83543,-13.4121 48.95313,-13.41211 22.80006,10e-6 39.34262,5.36627 49.625,16.09571 10.28238,10.72944 15.42383,25.92897 15.42383,45.59961 v 11.91211 c 9.45101,-1.34703 19.19012,-2.61479 29.47265,-3.74024 0,-43.04038 -14.11124,-83.96289 -69.14648,-83.96289 -36.69016,0 -71.96971,18.34343 -98.07617,35.27735 l -22.57813,-38.80665 c 31.04552,-20.46182 77.6147,-43.03906 130.5332,-43.03906 80.07395,0 114.72892,52.28086 115.62891,133.66992 V 441.6582 c 0,-40.2354 -12.29256,-71.08213 -36.88086,-92.54101 -24.5883,-21.45888 -60.57843,-32.1875 -107.9668,-32.1875 z m 144.84766,141.40429 v 148.28907 h 0.0859 V 461.54688 c 0,-1.09562 -0.0739,-2.1276 -0.0859,-3.2129 z m 0.0859,148.28907 v 60.24609 h -46.56836 l -4.93945,-40.2168 h -1.41016 c -5.65592,4.77611 -11.47783,9.38306 -17.45117,13.75 3.29178,6.98703 7.47846,13.17858 12.61328,18.52735 11.1765,10.72944 26.15316,16.09375 44.92969,16.09375 h 47.61132 v -68.40039 z m -70.36914,33.77929 c -3.58655,-7.61268 -6.10525,-16.17494 -7.50391,-25.73242 h -4.02344 c -5.81178,22.80006 -17.65861,40.01316 -35.54101,51.63672 -0.51283,0.32052 -1.06418,0.59102 -1.58399,0.90234 17.29766,-6.26631 33.49069,-15.72238 48.65235,-26.80664 z m -48.65235,26.80664 c -14.14476,5.12414 -29.0215,8.12696 -44.67382,8.12696 -54.32967,0 -96.66407,-35.27765 -96.66407,-95.25196 0,-53.45268 32.99417,-87.04693 105.70508,-107.35937 -43.39939,1.08573 -77.34985,9.88419 -101.5957,26.60547 -25.92948,17.43534 -38.89453,44.25884 -38.89453,80.4707 0,31.2942 9.61235,56.32895 28.83593,75.10547 19.22358,18.77652 46.71762,28.16406 82.48243,28.16406 25.62012,0 47.1985,-5.31666 64.80468,-15.86133 z M 475.52539,472.72461 c 3.01365,-0.0754 5.94477,-0.21875 9.05078,-0.21875 h 59.6836 v -13.57031 c -25.94845,3.69837 -48.86426,8.23816 -68.73438,13.78906 z m 98.20703,19.86719 c -64.78832,7.94179 -105.05557,20.34149 -127.12304,38.37109 10.70742,-4.52238 24.88847,-6.82227 42.6621,-6.82227 h 54.98829 v 46.27149 c 0,16.54122 -6.70734,29.05859 -20.11915,37.55273 -13.4118,8.49414 -29.72954,12.74219 -48.95312,12.74219 -16.65289,0 -29.63047,-3.24376 -38.98047,-9.6875 10.63709,12.57131 27.75747,18.45508 47.21094,18.45508 31.7511,0 58.56335,-16.22847 90.31445,-43.74609 z M 436.20703,611.01953 c -7.11011,-8.403 -11.35156,-19.76556 -11.35156,-34.46484 0,-18.11823 6.57072,-33.18682 21.75391,-45.5918 -16.22495,6.85275 -24.39844,18.85899 -24.39844,36.0957 v 11.40039 c 0,14.30592 4.47091,25.03454 13.41211,32.1875 0.18534,0.13239 0.39567,0.24328 0.58398,0.37305 z" /></g><g
     id="g14"
     transform="matrix(1.128082,0,0,1.128082,-64.041017,-108.05991)"><path
       id="text13"
       style="font-size:670.59px;text-align:center;writing-mode:lr-tb;direction:ltr;text-anchor:middle;mix-blend-mode:normal;fill:#000000;fill-opacity:1;stroke-width:3.49266"
       inkscape:label="original"
       d="m 514.46484,324.66406 c -52.9185,0 -99.48768,22.57724 -130.5332,43.03906 l 22.57813,38.80665 c 26.10646,-16.93392 61.38601,-35.27735 98.07617,-35.27735 55.03524,0 69.14648,40.92251 69.14648,83.96289 -10.28253,1.12545 -20.02164,2.39321 -29.47265,3.74024 v 13.57031 h -59.6836 c -3.10601,0 -6.03713,0.14336 -9.05078,0.21875 -72.71091,20.31244 -105.70508,53.90669 -105.70508,107.35937 0,59.97431 42.3344,95.25196 96.66407,95.25196 15.65232,0 30.52906,-3.00282 44.67382,-8.12696 0.51981,-0.31132 1.07116,-0.58182 1.58399,-0.90234 17.8824,-11.62356 29.72923,-28.83666 35.54101,-51.63672 h 4.02344 c 1.39866,9.55748 3.91736,18.11974 7.50391,25.73242 5.97334,-4.36694 11.79525,-8.97389 17.45117,-13.75 h 1.41016 l 4.93945,40.2168 h 46.56836 v -60.24609 h -0.0859 V 458.33398 c -0.90003,-81.38906 -35.555,-133.66992 -115.62895,-133.66992 z m 59.26758,167.92774 v 93.13672 c -31.7511,27.51762 -58.56335,43.74609 -90.31445,43.74609 -19.45347,0 -36.57385,-5.88377 -47.21094,-18.45508 -0.18831,-0.12977 -0.39864,-0.24066 -0.58398,-0.37305 -8.9412,-7.15296 -13.41211,-17.88158 -13.41211,-32.1875 v -11.40039 c 0,-17.23671 8.17349,-29.24295 24.39844,-36.0957 22.06747,-18.0296 62.33472,-30.4293 127.12304,-38.37109 z" /></g><g
     id="g17"
     style="display:none"
     transform="matrix(1.128082,0,0,1.128082,-64.041017,-108.05991)"
     sodipodi:insensitive="true"><text
       xml:space="preserve"
       style="font-size:670.59px;text-align:center;writing-mode:lr-tb;direction:ltr;text-anchor:middle;mix-blend-mode:normal;fill:#000000;fill-opacity:1;stroke-width:3.49266"
       x="497.65295"
       y="675.02399"
       id="text16"
       inkscape:label="original"><tspan
         sodipodi:role="line"
         id="tspan16"
         x="497.65295"
         y="675.02399"
         style="font-style:normal;font-variant:normal;font-weight:600;font-stretch:normal;font-size:670.59px;font-family:'IBM Plex Sans';-inkscape-font-specification:'IBM Plex Sans Semi-Bold';text-align:center;text-anchor:middle;fill:#000000;fill-opacity:1;stroke-width:3.49266">a</tspan></text><text
       xml:space="preserve"
       style="font-size:705.58px;text-align:center;writing-mode:lr-tb;direction:ltr;text-anchor:middle;mix-blend-mode:normal;fill:#000000;fill-opacity:1;stroke-width:3.67489"
       x="506.70331"
       y="666.86969"
       id="text17"
       inkscape:label="homoglyph"><tspan
         sodipodi:role="line"
         id="tspan17"
         x="506.70331"
         y="666.86969"
         style="font-style:normal;font-variant:normal;font-weight:600;font-stretch:normal;font-size:705.58px;font-family:'IBM Plex Sans';-inkscape-font-specification:'IBM Plex Sans Semi-Bold';text-align:center;text-anchor:middle;fill:#000000;fill-opacity:1;stroke-width:3.67489">𝖺</tspan></text></g></svg>
